<svg width="32" height="32" viewBox="0 0 32 32" fill="none" xmlns="http://www.w3.org/2000/svg">
<path d="M2.17756 14.9975V14.3636H5.16406V14.9975H4.05078V18H3.29084V14.9975H2.17756ZM4.90927 18V15.2727H5.64258V15.7486H5.67099C5.7207 15.5793 5.80415 15.4515 5.92134 15.3651C6.03853 15.2775 6.17347 15.2337 6.32617 15.2337C6.36405 15.2337 6.40489 15.236 6.44869 15.2408C6.49248 15.2455 6.53095 15.252 6.5641 15.2603V15.9315C6.52859 15.9208 6.47946 15.9113 6.41673 15.9031C6.35399 15.8948 6.29658 15.8906 6.2445 15.8906C6.13323 15.8906 6.03379 15.9149 5.9462 15.9634C5.85979 16.0108 5.79113 16.0771 5.74023 16.1623C5.69052 16.2475 5.66566 16.3458 5.66566 16.457V18H4.90927ZM7.20552 18.0515C7.03152 18.0515 6.87645 18.0213 6.74032 17.9609C6.6042 17.8994 6.49648 17.8088 6.41717 17.6893C6.33904 17.5685 6.29998 17.4182 6.29998 17.2383C6.29998 17.0868 6.3278 16.9595 6.38343 16.8565C6.43907 16.7536 6.51483 16.6707 6.61071 16.608C6.70659 16.5452 6.81549 16.4979 6.93741 16.4659C7.06052 16.4339 7.18954 16.4115 7.32449 16.3984C7.4831 16.3819 7.61094 16.3665 7.70801 16.3523C7.80507 16.3369 7.8755 16.3144 7.9193 16.2848C7.9631 16.2552 7.985 16.2114 7.985 16.1534V16.1428C7.985 16.0303 7.94949 15.9433 7.87846 15.8817C7.80862 15.8202 7.70919 15.7894 7.58017 15.7894C7.44404 15.7894 7.33573 15.8196 7.25524 15.88C7.17475 15.9392 7.12148 16.0137 7.09544 16.1037L6.39586 16.0469C6.43137 15.8812 6.50121 15.7379 6.60538 15.6172C6.70955 15.4953 6.8439 15.4018 7.00843 15.3366C7.17415 15.2704 7.36592 15.2372 7.58372 15.2372C7.73523 15.2372 7.88024 15.255 8.01873 15.2905C8.15841 15.326 8.28211 15.381 8.38983 15.4556C8.49873 15.5302 8.58455 15.6261 8.64728 15.7433C8.71002 15.8593 8.74139 15.9983 8.74139 16.1605V18H8.02406V17.6218H8.00275C7.95895 17.707 7.90036 17.7822 7.82697 17.8473C7.75358 17.9112 7.66539 17.9615 7.56241 17.9982C7.45943 18.0337 7.34047 18.0515 7.20552 18.0515ZM7.42214 17.5295C7.53341 17.5295 7.63166 17.5076 7.71689 17.4638C7.80211 17.4188 7.86899 17.3584 7.91752 17.2827C7.96606 17.2069 7.99032 17.1211 7.99032 17.0252V16.7358C7.96665 16.7512 7.9341 16.7654 7.89267 16.7784C7.85242 16.7902 7.80685 16.8015 7.75595 16.8121C7.70505 16.8216 7.65415 16.8305 7.60325 16.8388C7.55235 16.8459 7.50618 16.8524 7.46475 16.8583C7.37598 16.8713 7.29844 16.892 7.23216 16.9205C7.16587 16.9489 7.11438 16.9873 7.07768 17.0359C7.04099 17.0832 7.02264 17.1424 7.02264 17.2134C7.02264 17.3164 7.05993 17.3951 7.1345 17.4496C7.21026 17.5028 7.30614 17.5295 7.42214 17.5295ZM9.88397 18.0444C9.67682 18.0444 9.4892 17.9911 9.32111 17.8846C9.15421 17.7769 9.02163 17.6188 8.92338 17.4105C8.82632 17.201 8.77779 16.9441 8.77779 16.6399C8.77779 16.3274 8.8281 16.0676 8.92871 15.8604C9.02933 15.6521 9.16309 15.4964 9.32999 15.3935C9.49808 15.2893 9.68214 15.2372 9.88219 15.2372C10.0349 15.2372 10.1621 15.2633 10.2639 15.3153C10.3669 15.3662 10.4498 15.4302 10.5125 15.5071C10.5764 15.5829 10.625 15.6574 10.6581 15.7308H10.6812V14.3636H11.4358V18H10.6901V17.5632H10.6581C10.6226 17.639 10.5723 17.7141 10.5072 17.7887C10.4433 17.8621 10.3598 17.9231 10.2568 17.9716C10.155 18.0201 10.0307 18.0444 9.88397 18.0444ZM10.1237 17.4425C10.2456 17.4425 10.3486 17.4093 10.4326 17.343C10.5178 17.2756 10.5829 17.1815 10.6279 17.0607C10.6741 16.94 10.6972 16.7985 10.6972 16.6364C10.6972 16.4742 10.6747 16.3333 10.6297 16.2138C10.5847 16.0942 10.5196 16.0019 10.4344 15.9368C10.3492 15.8717 10.2456 15.8391 10.1237 15.8391C9.99938 15.8391 9.89462 15.8729 9.80939 15.9403C9.72417 16.0078 9.65965 16.1013 9.61586 16.2209C9.57206 16.3404 9.55016 16.4789 9.55016 16.6364C9.55016 16.795 9.57206 16.9353 9.61586 17.0572C9.66084 17.1779 9.72535 17.2726 9.80939 17.3413C9.89462 17.4087 9.99938 17.4425 10.1237 17.4425ZM12.8514 18.0533C12.5708 18.0533 12.3294 17.9964 12.127 17.8828C11.9257 17.768 11.7707 17.6058 11.6618 17.3963C11.5529 17.1856 11.4984 16.9364 11.4984 16.6488C11.4984 16.3683 11.5529 16.122 11.6618 15.9102C11.7707 15.6983 11.9239 15.5331 12.1216 15.4148C12.3205 15.2964 12.5537 15.2372 12.8212 15.2372C13.0011 15.2372 13.1686 15.2662 13.3237 15.3242C13.4799 15.381 13.6161 15.4669 13.7321 15.5817C13.8493 15.6965 13.9404 15.8409 14.0055 16.0149C14.0706 16.1877 14.1032 16.3902 14.1032 16.6222V16.8299H11.8002V16.3612H13.3912C13.3912 16.2522 13.3675 16.1558 13.3201 16.0717C13.2728 15.9877 13.2071 15.922 13.123 15.8746C13.0402 15.8261 12.9437 15.8018 12.8336 15.8018C12.7188 15.8018 12.617 15.8285 12.5282 15.8817C12.4406 15.9338 12.372 16.0043 12.3223 16.093C12.2725 16.1806 12.2471 16.2783 12.2459 16.386V16.8317C12.2459 16.9666 12.2708 17.0832 12.3205 17.1815C12.3714 17.2797 12.443 17.3555 12.5353 17.4087C12.6277 17.462 12.7372 17.4886 12.8638 17.4886C12.9479 17.4886 13.0248 17.4768 13.0946 17.4531C13.1645 17.4295 13.2243 17.3939 13.274 17.3466C13.3237 17.2992 13.3616 17.2412 13.3876 17.1726L14.0872 17.2188C14.0517 17.3868 13.9789 17.5336 13.8688 17.6591C13.7599 17.7834 13.619 17.8804 13.4462 17.9503C13.2746 18.0189 13.0763 18.0533 12.8514 18.0533ZM15.6177 14.3636H16.3777V16.8991C16.3777 17.1335 16.325 17.3371 16.2196 17.5099C16.1155 17.6828 15.9705 17.8159 15.7846 17.9094C15.5988 18.003 15.3828 18.0497 15.1365 18.0497C14.9176 18.0497 14.7187 18.0112 14.54 17.9343C14.3624 17.8562 14.2215 17.7378 14.1174 17.5792C14.0132 17.4194 13.9617 17.2187 13.9629 16.9773H14.7282C14.7305 17.0732 14.7501 17.1554 14.7868 17.2241C14.8246 17.2915 14.8761 17.3436 14.9412 17.3803C15.0075 17.4158 15.0856 17.4336 15.1756 17.4336C15.2703 17.4336 15.3502 17.4135 15.4153 17.3732C15.4816 17.3318 15.5319 17.2714 15.5662 17.1921C15.6006 17.1128 15.6177 17.0152 15.6177 16.8991V14.3636ZM17.7821 18.0533C17.5063 18.0533 17.2678 17.9947 17.0666 17.8775C16.8665 17.7591 16.7121 17.5946 16.6032 17.3839C16.4943 17.172 16.4398 16.9264 16.4398 16.647C16.4398 16.3653 16.4943 16.1191 16.6032 15.9084C16.7121 15.6965 16.8665 15.532 17.0666 15.4148C17.2678 15.2964 17.5063 15.2372 17.7821 15.2372C18.0579 15.2372 18.2959 15.2964 18.4959 15.4148C18.6971 15.532 18.8522 15.6965 18.9611 15.9084C19.07 16.1191 19.1245 16.3653 19.1245 16.647C19.1245 16.9264 19.07 17.172 18.9611 17.3839C18.8522 17.5946 18.6971 17.7591 18.4959 17.8775C18.2959 17.9947 18.0579 18.0533 17.7821 18.0533ZM17.7857 17.4673C17.9112 17.4673 18.0159 17.4318 18.1 17.3608C18.184 17.2886 18.2473 17.1903 18.29 17.0661C18.3337 16.9418 18.3556 16.8003 18.3556 16.6417C18.3556 16.4831 18.3337 16.3416 18.29 16.2173C18.2473 16.093 18.184 15.9948 18.1 15.9226C18.0159 15.8504 17.9112 15.8143 17.7857 15.8143C17.659 15.8143 17.5525 15.8504 17.4661 15.9226C17.3809 15.9948 17.3163 16.093 17.2725 16.2173C17.2299 16.3416 17.2086 16.4831 17.2086 16.6417C17.2086 16.8003 17.2299 16.9418 17.2725 17.0661C17.3163 17.1903 17.3809 17.2886 17.4661 17.3608C17.5525 17.4318 17.659 17.4673 17.7857 17.4673ZM20.916 16.8388V15.2727H21.6724V18H20.9462V17.5046H20.9178C20.8562 17.6644 20.7538 17.7929 20.6106 17.8899C20.4686 17.987 20.2952 18.0355 20.0904 18.0355C19.9081 18.0355 19.7477 17.9941 19.6092 17.9112C19.4707 17.8284 19.3624 17.7106 19.2843 17.5579C19.2073 17.4052 19.1683 17.2223 19.1671 17.0092V15.2727H19.9235V16.8743C19.9247 17.0353 19.9679 17.1625 20.0531 17.256C20.1383 17.3496 20.2525 17.3963 20.3958 17.3963C20.4869 17.3963 20.5721 17.3756 20.6515 17.3342C20.7308 17.2915 20.7947 17.2288 20.8432 17.146C20.8929 17.0631 20.9172 16.9607 20.916 16.8388ZM21.8282 18V15.2727H22.5615V15.7486H22.5899C22.6396 15.5793 22.7231 15.4515 22.8403 15.3651C22.9575 15.2775 23.0924 15.2337 23.2451 15.2337C23.283 15.2337 23.3238 15.236 23.3676 15.2408C23.4114 15.2455 23.4499 15.252 23.483 15.2603V15.9315C23.4475 15.9208 23.3984 15.9113 23.3357 15.9031C23.2729 15.8948 23.2155 15.8906 23.1634 15.8906C23.0522 15.8906 22.9527 15.9149 22.8651 15.9634C22.7787 16.0108 22.7101 16.0771 22.6592 16.1623C22.6095 16.2475 22.5846 16.3458 22.5846 16.457V18H21.8282ZM24.1813 16.4233V18H23.4249V15.2727H24.1458V15.7539H24.1777C24.2381 15.5953 24.3393 15.4698 24.4814 15.3775C24.6234 15.284 24.7956 15.2372 24.998 15.2372C25.1874 15.2372 25.3526 15.2786 25.4934 15.3615C25.6343 15.4444 25.7438 15.5627 25.8219 15.7166C25.9 15.8693 25.9391 16.0516 25.9391 16.2635V18H25.1827V16.3984C25.1839 16.2315 25.1413 16.1013 25.0549 16.0078C24.9685 15.9131 24.8495 15.8658 24.698 15.8658C24.5962 15.8658 24.5062 15.8877 24.4281 15.9315C24.3511 15.9753 24.2908 16.0392 24.247 16.1232C24.2044 16.2061 24.1825 16.3061 24.1813 16.4233ZM26.8637 18.0515C26.6897 18.0515 26.5347 18.0213 26.3985 17.9609C26.2624 17.8994 26.1547 17.8088 26.0754 17.6893C25.9972 17.5685 25.9582 17.4182 25.9582 17.2383C25.9582 17.0868 25.986 16.9595 26.0416 16.8565C26.0973 16.7536 26.173 16.6707 26.2689 16.608C26.3648 16.5452 26.4737 16.4979 26.5956 16.4659C26.7187 16.4339 26.8477 16.4115 26.9827 16.3984C27.1413 16.3819 27.2691 16.3665 27.3662 16.3523C27.4633 16.3369 27.5337 16.3144 27.5775 16.2848C27.6213 16.2552 27.6432 16.2114 27.6432 16.1534V16.1428C27.6432 16.0303 27.6077 15.9433 27.5367 15.8817C27.4668 15.8202 27.3674 15.7894 27.2384 15.7894C27.1022 15.7894 26.9939 15.8196 26.9134 15.88C26.8329 15.9392 26.7797 16.0137 26.7536 16.1037L26.0541 16.0469C26.0896 15.8812 26.1594 15.7379 26.2636 15.6172C26.3677 15.4953 26.5021 15.4018 26.6666 15.3366C26.8324 15.2704 27.0241 15.2372 27.2419 15.2372C27.3934 15.2372 27.5384 15.255 27.6769 15.2905C27.8166 15.326 27.9403 15.381 28.048 15.4556C28.1569 15.5302 28.2427 15.6261 28.3055 15.7433C28.3682 15.8593 28.3996 15.9983 28.3996 16.1605V18H27.6823V17.6218H27.661C27.6172 17.707 27.5586 17.7822 27.4852 17.8473C27.4118 17.9112 27.3236 17.9615 27.2206 17.9982C27.1176 18.0337 26.9987 18.0515 26.8637 18.0515ZM27.0803 17.5295C27.1916 17.5295 27.2899 17.5076 27.3751 17.4638C27.4603 17.4188 27.5272 17.3584 27.5757 17.2827C27.6243 17.2069 27.6485 17.1211 27.6485 17.0252V16.7358C27.6249 16.7512 27.5923 16.7654 27.5509 16.7784C27.5106 16.7902 27.4651 16.8015 27.4142 16.8121C27.3633 16.8216 27.3124 16.8305 27.2615 16.8388C27.2106 16.8459 27.1644 16.8524 27.123 16.8583C27.0342 16.8713 26.9566 16.892 26.8904 16.9205C26.8241 16.9489 26.7726 16.9873 26.7359 17.0359C26.6992 17.0832 26.6808 17.1424 26.6808 17.2134C26.6808 17.3164 26.7181 17.3951 26.7927 17.4496C26.8685 17.5028 26.9643 17.5295 27.0803 17.5295ZM29.2936 14.3636V18H28.5372V14.3636H29.2936Z" fill="white"/>
</svg>
